{"glyphs":{"0":{"ha":833,"x_min":156,"x_max":678,"o":"m 678 496 l 678 354 q 590 64 678 172 q 418 -21 522 -21 q 323 -1 368 -21 q 247 56 278 19 q 206 126 229 78 q 171 218 182 175 q 156 354 156 279 l 156 496 q 243 788 156 679 q 415 871 313 871 q 510 852 468 871 q 586 796 553 833 q 628 724 606 774 q 664 633 651 675 q 674 570 669 607 q 678 496 678 533 m 621 489 q 599 639 621 571 q 547 750 576 707 q 503 790 529 775 q 417 814 464 814 q 267 716 321 814 q 213 489 213 618 l 213 363 q 236 210 213 281 q 288 101 260 139 q 303 82 293 92 q 331 61 314 72 q 418 36 368 36 q 567 135 513 36 q 621 363 621 233 l 621 489 z "},"1":{"ha":833,"x_min":154,"x_max":678,"o":"m 444 863 l 444 57 l 640 57 q 669 49 661 57 q 678 29 678 42 q 669 8 678 17 q 640 0 661 0 l 193 0 q 165 8 172 0 q 154 29 157 15 q 163 49 154 40 q 193 57 172 57 l 388 57 l 388 783 l 203 725 l 182 722 q 163 730 171 722 q 156 750 156 738 q 163 769 156 761 l 185 781 l 444 863 z "},"2":{"ha":833,"x_min":115,"x_max":667,"o":"m 608 57 l 608 79 q 617 108 608 100 q 638 117 625 117 q 659 108 651 117 q 667 79 667 100 l 667 0 l 115 0 l 115 85 q 454 401 283 233 q 558 513 526 474 q 597 574 586 544 q 606 603 604 593 q 608 628 608 614 q 549 757 608 700 q 407 814 489 814 q 276 773 332 814 q 200 665 219 732 q 188 643 196 649 q 171 638 181 638 q 151 644 158 638 q 144 664 144 651 q 180 753 144 697 q 278 839 215 808 q 406 871 338 871 q 590 798 514 871 q 665 631 665 725 q 663 591 665 603 q 653 557 661 579 q 608 486 639 522 q 569 440 593 467 q 499 368 544 414 q 172 61 306 176 l 608 57 z "},"3":{"ha":833,"x_min":132,"x_max":694,"o":"m 533 463 q 654 367 613 429 q 685 304 675 333 q 694 239 694 275 q 612 58 694 138 q 404 -21 529 -21 q 253 11 333 -21 q 187 41 214 25 q 143 75 160 57 q 132 97 132 86 q 140 117 132 108 q 158 125 147 125 q 183 115 167 125 q 406 36 288 36 q 571 99 504 36 q 638 236 638 161 q 606 338 638 290 q 511 413 574 385 q 386 442 449 442 q 357 449 364 442 q 347 469 350 456 q 356 490 347 482 q 382 499 364 499 l 431 497 q 556 545 506 497 q 607 653 607 593 q 556 765 607 717 q 418 814 506 814 q 309 794 357 814 q 231 739 261 774 q 214 722 221 725 l 201 719 q 181 726 189 719 q 174 746 174 733 q 232 814 174 769 q 418 871 314 871 q 597 806 528 871 q 665 653 665 742 q 631 545 665 597 q 533 463 597 493 z "},"4":{"ha":833,"x_min":144,"x_max":667,"o":"m 522 238 l 144 238 l 144 304 l 463 851 l 581 851 l 581 294 l 628 294 q 658 288 647 294 q 667 267 664 282 q 658 246 667 254 q 628 238 650 238 l 581 238 l 581 57 l 628 57 q 658 49 647 57 q 667 29 664 44 q 658 8 667 17 q 628 0 650 0 l 417 0 q 388 8 397 0 q 378 29 378 17 q 386 49 378 40 q 417 57 394 57 l 522 57 l 522 238 m 522 294 l 522 793 l 493 793 l 204 294 l 522 294 z "},"5":{"ha":833,"x_min":133,"x_max":694,"o":"m 260 793 l 260 515 q 321 536 283 524 q 356 546 340 543 q 443 557 404 557 q 623 483 551 557 q 694 283 694 408 q 613 63 694 146 q 410 -21 532 -21 q 256 15 332 -21 q 158 78 203 40 q 133 115 133 101 q 141 136 133 128 q 160 144 149 144 q 185 132 169 144 q 407 36 288 36 q 573 105 508 36 q 638 286 638 174 q 581 440 638 383 q 438 500 526 500 q 261 453 347 500 l 231 442 q 210 451 218 442 q 203 474 203 460 l 203 851 l 600 851 q 629 843 621 851 q 638 822 638 835 q 629 801 638 808 q 600 793 621 793 l 260 793 z "},"6":{"ha":833,"x_min":186,"x_max":713,"o":"m 247 360 q 356 475 300 438 q 481 513 413 513 q 642 437 571 513 q 713 250 713 361 q 648 63 713 147 q 469 -21 583 -21 q 333 24 397 -21 q 232 165 269 69 q 186 425 186 282 q 229 624 186 533 q 315 748 260 693 q 442 837 369 803 q 599 871 515 871 q 693 849 654 871 q 710 821 710 838 q 702 801 710 810 q 683 793 694 793 q 663 800 676 793 q 593 814 635 814 q 352 701 461 814 q 243 431 243 588 l 247 360 m 260 265 q 340 90 285 143 q 471 36 396 36 q 600 97 544 36 q 656 250 656 157 q 601 397 656 339 q 478 456 547 456 q 351 400 413 456 q 260 265 310 363 z "},"7":{"ha":833,"x_min":143,"x_max":665,"o":"m 608 768 l 608 793 l 200 793 l 200 743 q 192 715 200 725 q 172 706 185 706 q 151 714 160 706 q 143 743 143 722 l 143 851 l 665 851 l 665 760 l 436 28 q 426 6 432 10 q 407 -1 421 1 q 386 7 394 -1 q 378 26 378 15 l 382 44 l 608 768 z "},"8":{"ha":833,"x_min":157,"x_max":678,"o":"m 533 442 q 642 349 606 406 q 678 229 678 293 q 602 53 678 126 q 417 -21 526 -21 q 234 53 311 -21 q 157 229 157 128 q 193 349 157 294 q 301 442 228 406 q 210 517 243 475 q 171 638 171 572 q 243 801 171 731 q 417 871 315 871 q 592 800 521 871 q 664 638 664 729 q 624 517 664 572 q 588 478 608 496 q 533 442 567 460 m 606 636 q 550 760 606 706 q 417 814 494 814 q 284 760 339 814 q 229 636 229 707 q 284 519 229 568 q 417 469 339 469 q 551 520 497 469 q 606 636 606 571 m 621 228 q 562 358 621 301 q 417 414 503 414 q 272 358 329 414 q 214 228 214 301 q 273 93 214 150 q 417 36 332 36 q 561 94 501 36 q 621 228 621 151 z "},"9":{"ha":833,"x_min":186,"x_max":710,"o":"m 650 482 q 545 365 607 406 q 421 325 483 325 q 308 358 364 325 q 219 458 251 392 q 186 596 186 524 q 251 786 186 701 q 425 871 317 871 q 565 824 501 871 q 665 683 628 778 q 710 411 710 565 q 671 210 710 289 q 596 106 647 160 q 543 60 572 81 q 477 20 514 39 q 397 -10 440 1 q 306 -21 353 -21 q 206 3 246 -21 q 189 29 189 14 q 197 49 189 40 q 217 57 206 57 q 240 50 226 57 q 301 36 271 36 q 549 141 446 36 q 653 401 653 246 l 650 482 m 639 576 q 550 765 603 715 q 426 814 497 814 q 299 753 356 814 q 243 596 243 693 q 299 442 243 503 q 422 382 354 382 q 502 404 463 382 q 575 468 542 426 q 639 576 596 494 z "}," ":{"ha":833,"x_min":0,"x_max":0,"o":""},"!":{"ha":833,"x_min":333,"x_max":500,"o":"m 471 793 l 446 333 q 436 303 443 313 q 417 294 429 294 q 398 303 406 294 q 388 333 390 311 l 363 793 l 361 817 q 376 854 361 838 q 417 871 392 871 q 457 856 442 871 q 472 817 472 840 l 471 793 m 404 121 l 431 121 q 479 100 458 121 q 500 50 500 79 q 479 0 500 21 q 431 -21 458 -21 l 404 -21 q 353 0 376 -21 q 333 50 333 22 q 354 101 333 81 q 404 121 375 121 z "},"\"":{"ha":833,"x_min":0,"x_max":471,"o":"m 0 838 l 181 838 l 133 507 q 119 472 129 482 q 90 461 108 461 q 64 470 74 461 q 47 507 54 479 l 0 838 m 290 838 l 471 838 l 424 507 q 408 471 419 479 q 382 461 400 461 q 353 471 364 461 q 339 507 343 483 l 290 838 z "},"#":{"ha":833,"x_min":126,"x_max":706,"o":"m 543 501 l 531 322 l 639 322 q 667 315 658 322 q 678 294 675 308 q 668 274 678 282 q 639 265 664 268 l 526 265 l 504 -51 q 495 -81 501 -74 q 475 -87 489 -87 l 464 -86 q 447 -58 447 -75 l 447 -47 l 469 265 l 340 265 l 318 -51 q 310 -80 318 -72 q 290 -87 303 -87 l 278 -86 q 261 -58 261 -75 l 261 -47 l 283 265 l 165 265 q 137 273 144 265 q 126 294 129 281 q 136 315 126 307 q 165 322 146 322 l 288 322 l 300 501 l 194 501 q 165 510 175 501 q 156 531 156 518 q 164 551 156 543 q 194 558 172 558 l 304 558 l 326 876 q 335 903 326 894 q 354 913 344 913 l 367 910 q 383 883 383 899 l 383 872 l 361 558 l 490 558 l 513 876 q 521 903 513 893 q 540 913 529 913 l 551 910 q 569 883 569 900 l 569 872 l 547 558 l 668 558 q 697 551 689 558 q 706 531 706 543 q 699 511 706 518 q 668 501 692 504 l 543 501 m 486 501 l 357 501 l 344 322 l 474 322 l 486 501 z "},"$":{"ha":833,"x_min":154,"x_max":678,"o":"m 388 813 l 388 885 q 394 913 388 906 q 415 924 401 921 q 436 915 428 924 q 444 885 444 906 l 444 813 q 486 808 467 811 q 521 797 506 804 q 590 760 553 786 q 599 785 590 776 q 619 793 608 793 q 640 785 632 793 q 649 756 649 776 l 649 671 q 640 642 649 650 q 619 633 632 633 q 601 640 608 633 q 591 664 594 646 q 579 694 588 682 q 549 722 571 707 q 418 758 493 758 q 290 714 343 758 q 242 613 242 668 q 286 526 242 557 q 425 483 317 504 q 514 464 475 474 q 571 446 553 454 q 651 381 624 424 q 678 283 678 339 q 617 147 678 206 q 444 76 557 89 l 444 -90 q 437 -119 444 -110 q 415 -129 429 -129 q 394 -121 406 -129 q 388 -90 388 -111 l 388 76 q 293 94 336 76 q 211 144 250 111 l 211 125 q 208 108 211 114 l 200 96 l 183 92 q 163 100 171 92 q 154 129 154 108 l 154 240 q 163 270 154 261 q 183 279 171 279 q 203 273 196 279 q 213 238 210 267 q 269 169 215 210 q 415 132 324 132 q 565 177 510 132 q 621 283 621 222 q 601 351 621 321 q 538 399 581 381 q 418 428 507 410 q 234 494 285 453 q 183 613 183 536 q 239 742 183 685 q 388 813 294 800 z "},"%":{"ha":833,"x_min":126,"x_max":708,"o":"m 503 689 q 451 564 503 615 q 329 513 400 513 q 207 564 258 513 q 169 621 182 590 q 156 689 156 651 q 206 813 156 761 q 329 865 257 865 q 451 814 400 865 q 503 689 503 763 m 463 689 q 422 785 463 746 q 329 824 382 824 q 235 784 274 824 q 197 689 197 744 q 235 593 197 633 q 329 554 276 554 q 424 594 385 554 q 463 689 463 635 m 688 492 l 160 319 l 146 318 q 132 324 135 321 l 126 338 q 132 351 129 349 q 147 360 142 358 l 675 531 l 690 533 q 703 526 699 531 q 708 514 708 521 q 699 498 706 503 q 688 492 693 493 m 679 160 q 628 35 679 86 q 504 -17 576 -17 q 382 35 433 -17 q 331 160 331 86 q 382 285 331 233 q 504 336 433 336 q 628 285 574 336 q 679 160 679 231 m 638 160 q 597 256 638 217 q 504 294 557 294 q 410 255 449 294 q 372 160 372 215 q 410 65 372 104 q 504 25 449 25 q 599 64 560 25 q 638 160 638 103 z "},"&":{"ha":833,"x_min":172,"x_max":693,"o":"m 578 0 l 535 67 q 376 -22 472 -22 q 234 42 296 -22 q 172 200 172 107 q 213 326 172 269 q 329 404 254 382 q 290 469 301 450 q 268 510 279 489 q 260 563 260 535 q 310 681 260 628 q 432 731 363 731 q 478 724 458 731 q 524 703 501 719 q 560 718 554 718 q 580 709 571 718 q 589 689 589 700 q 583 674 589 681 l 565 660 l 521 636 q 478 664 503 653 q 433 674 457 671 q 350 639 386 674 q 317 561 317 603 q 376 421 317 518 l 535 171 q 600 350 575 250 l 656 350 q 685 343 674 350 q 693 322 693 335 q 688 305 693 313 q 676 296 682 297 l 643 293 q 608 192 626 235 q 568 115 590 149 l 607 57 l 656 57 q 683 49 674 57 q 693 29 693 42 q 685 8 693 17 q 656 0 676 0 l 578 0 m 353 354 q 265 300 300 343 q 229 200 229 257 q 274 83 229 132 q 376 35 319 35 q 501 119 450 35 l 353 354 z "},"'":{"ha":833,"x_min":326,"x_max":507,"o":"m 326 851 l 507 851 l 460 494 q 444 455 456 465 q 417 444 432 444 q 389 456 400 444 q 374 494 378 467 l 326 851 z "},"(":{"ha":833,"x_min":410,"x_max":639,"o":"m 410 338 q 431 503 410 415 q 460 598 442 549 q 508 706 478 647 q 593 843 567 821 q 610 851 599 849 q 631 843 622 851 q 639 824 639 835 l 635 808 q 572 681 600 744 q 528 560 544 617 q 496 338 496 447 q 529 114 496 228 q 635 -133 563 0 l 639 -147 q 631 -167 639 -157 q 610 -176 622 -176 q 593 -169 603 -176 q 511 -33 569 -147 q 463 70 481 24 q 432 164 444 117 q 410 338 410 256 z "},")":{"ha":833,"x_min":204,"x_max":433,"o":"m 433 338 q 414 174 433 260 q 337 -28 394 89 q 251 -168 279 -144 q 233 -176 243 -176 q 213 -168 221 -176 q 204 -147 204 -160 l 208 -133 q 314 114 281 0 q 347 338 347 228 q 315 565 347 454 q 208 808 283 675 l 204 824 q 213 843 204 835 q 233 851 221 851 q 251 843 240 851 q 332 710 274 822 q 412 513 390 597 q 433 338 433 428 z "},"*":{"ha":833,"x_min":0,"x_max":521,"o":"m 232 618 l 232 813 q 240 841 232 833 q 261 851 247 849 q 282 842 274 851 q 289 813 289 836 l 289 618 l 475 678 l 494 682 q 512 674 503 682 q 521 654 521 667 q 516 637 521 643 q 492 624 511 631 l 307 563 l 422 406 q 433 381 431 393 q 424 360 433 369 q 404 351 415 351 q 375 372 390 351 l 261 529 l 146 372 q 117 351 133 354 q 97 360 107 351 q 88 381 88 368 q 100 406 88 389 l 214 563 l 29 624 q 6 636 11 631 q 0 654 0 642 q 8 672 0 663 q 26 682 17 682 l 47 678 l 232 618 z "},"+":{"ha":833,"x_min":97,"x_max":736,"o":"m 446 368 l 446 83 q 438 54 446 63 q 417 46 429 46 q 396 54 404 46 q 388 83 388 63 l 388 368 l 136 368 q 108 375 115 368 q 97 397 100 382 q 106 417 97 408 q 136 425 115 425 l 388 425 l 388 708 q 395 737 388 729 q 417 747 403 744 q 438 738 429 747 q 446 708 446 729 l 446 425 l 697 425 q 726 418 718 425 q 736 397 733 411 q 726 376 736 385 q 697 368 722 371 l 446 368 z "},",":{"ha":833,"x_min":203,"x_max":489,"o":"m 304 204 l 489 204 l 288 -169 q 243 -203 268 -203 q 214 -192 226 -203 q 203 -162 203 -178 l 204 -147 l 304 204 z "},"-":{"ha":833,"x_min":126,"x_max":707,"o":"m 707 433 l 707 351 l 126 351 l 126 433 l 707 433 z "},".":{"ha":833,"x_min":313,"x_max":521,"o":"m 406 164 l 429 164 q 494 137 467 164 q 521 72 521 110 q 494 6 521 33 q 429 -21 467 -21 l 406 -21 q 341 6 369 -21 q 313 71 313 33 q 341 137 313 110 q 406 164 369 164 z "},"/":{"ha":833,"x_min":156,"x_max":679,"o":"m 672 893 l 214 -89 q 185 -115 203 -115 q 165 -106 174 -115 q 156 -87 156 -97 l 163 -65 l 621 917 q 635 938 626 929 l 651 942 q 671 933 663 942 q 679 915 679 925 q 672 893 679 906 z "},":":{"ha":833,"x_min":313,"x_max":521,"o":"m 406 588 l 429 588 q 494 560 468 588 q 521 496 521 535 q 493 429 521 456 q 429 403 468 403 l 406 403 q 340 431 367 403 q 313 494 313 456 q 340 561 313 535 q 406 588 367 588 m 406 164 l 429 164 q 494 137 467 164 q 521 72 521 110 q 494 6 521 33 q 429 -21 467 -21 l 406 -21 q 341 6 369 -21 q 313 71 313 33 q 341 137 313 110 q 406 164 369 164 z "},";":{"ha":833,"x_min":211,"x_max":521,"o":"m 404 588 l 429 588 q 493 560 467 588 q 521 496 521 535 q 493 429 521 456 q 429 403 468 403 l 404 403 q 339 431 365 403 q 313 494 313 456 q 340 561 313 535 q 404 588 367 588 m 306 204 l 485 204 l 292 -110 q 272 -137 281 -131 q 250 -144 263 -144 q 224 -135 233 -144 q 211 -111 214 -126 l 215 -89 l 306 204 z "},"<":{"ha":833,"x_min":0,"x_max":667,"o":"m 0 396 l 615 739 q 628 744 621 742 q 638 747 635 746 q 658 738 649 747 q 667 718 664 732 q 643 689 667 701 l 115 396 l 643 103 q 665 72 665 90 q 657 52 665 60 q 638 44 649 44 q 628 47 633 46 q 615 53 624 49 l 0 396 z "},"=":{"ha":833,"x_min":68,"x_max":765,"o":"m 728 471 l 107 471 q 78 478 86 471 q 68 500 71 486 q 77 521 68 513 q 107 529 86 529 l 728 529 q 757 521 749 529 q 765 500 765 513 q 757 479 765 488 q 728 471 749 471 m 728 267 l 107 267 q 78 274 86 267 q 68 296 71 282 q 78 316 68 308 q 107 324 88 324 l 728 324 q 756 316 747 324 q 765 296 765 308 q 758 276 765 283 q 728 267 751 269 z "},">":{"ha":833,"x_min":0,"x_max":667,"o":"m 667 396 l 51 53 q 33 46 46 50 q 29 44 32 46 q 8 53 17 44 q 0 72 0 61 q 24 103 0 89 l 550 396 l 24 689 q 0 718 0 700 q 8 737 0 729 q 29 747 15 744 q 38 744 33 746 q 51 739 43 743 l 667 396 z "},"?":{"ha":833,"x_min":0,"x_max":493,"o":"m 261 349 l 261 290 q 253 261 261 272 q 232 253 244 256 q 213 261 222 253 q 203 290 203 269 l 203 386 q 406 496 351 442 q 436 574 436 526 q 381 702 436 647 q 238 757 326 757 q 198 755 218 757 q 153 747 178 753 q 57 708 113 736 l 57 650 q 49 622 57 632 q 29 613 42 613 q 8 621 17 613 q 0 650 0 629 l 0 746 q 138 801 106 793 q 243 814 190 814 q 424 747 356 814 q 493 575 493 679 q 452 462 493 510 q 261 349 411 414 m 203 121 l 260 121 q 310 100 289 121 q 331 50 331 79 q 310 0 331 21 q 260 -21 289 -21 l 203 -21 q 154 0 176 -21 q 132 50 132 21 q 153 101 132 81 q 203 121 174 121 z "},"@":{"ha":833,"x_min":146,"x_max":667,"o":"m 582 204 l 582 213 l 551 208 l 525 207 q 388 258 440 207 q 335 383 335 308 q 400 526 335 465 q 582 586 465 586 l 582 653 q 535 776 582 729 q 421 822 489 822 q 331 797 375 822 q 282 756 301 781 q 253 710 268 738 q 226 653 238 682 q 203 504 203 593 l 203 281 q 264 58 203 147 q 428 -31 325 -31 q 579 17 531 -31 q 603 28 593 28 q 621 19 611 28 q 631 0 631 11 q 589 -47 631 -19 q 419 -87 524 -87 q 319 -69 363 -87 q 244 -12 275 -50 q 224 15 236 -4 q 199 58 213 33 q 176 107 186 82 q 160 153 167 132 q 150 208 154 175 q 146 281 146 242 l 146 508 q 238 792 146 681 q 418 879 313 879 q 522 856 475 879 q 603 778 568 832 q 639 653 639 725 l 639 261 q 658 255 653 261 q 667 233 664 249 l 663 218 l 651 207 l 629 204 l 582 204 m 582 531 q 443 486 494 531 q 392 385 392 442 q 428 299 392 335 q 532 264 464 264 l 556 265 l 582 269 l 582 531 z "},"A":{"ha":833,"x_min":11,"x_max":824,"o":"m 604 265 l 231 265 l 153 57 l 263 57 q 292 49 283 57 q 300 29 300 42 q 292 8 300 17 q 263 0 283 0 l 50 0 q 22 8 29 0 q 11 29 14 15 q 20 49 11 40 q 50 57 29 57 l 93 57 l 346 736 l 176 736 q 147 744 158 736 q 139 765 140 753 q 147 785 139 778 q 176 793 156 793 l 464 793 l 742 57 l 786 57 q 815 49 807 57 q 824 29 824 42 q 815 8 824 17 q 786 0 807 0 l 574 0 q 545 8 553 0 q 535 29 538 15 q 544 49 535 40 q 574 57 553 57 l 682 57 l 604 265 m 582 322 l 425 736 l 404 736 l 251 322 l 582 322 z "},"B":{"ha":833,"x_min":58,"x_max":754,"o":"m 174 57 l 174 736 l 97 736 q 68 744 76 736 q 58 765 60 753 q 68 785 58 779 q 97 793 76 793 l 456 793 q 628 732 563 793 q 694 588 694 671 q 583 419 694 483 q 714 333 674 388 q 754 218 754 279 q 728 113 754 158 q 646 33 701 67 q 522 0 590 0 l 97 0 q 69 8 76 0 q 58 29 61 15 q 67 49 58 40 q 97 57 76 57 l 174 57 m 231 440 l 432 440 q 550 464 494 440 q 615 519 592 482 q 638 593 638 556 q 587 691 638 646 q 457 736 536 736 l 231 736 l 231 440 m 231 57 l 519 57 q 615 81 574 57 q 676 142 656 106 q 697 217 697 178 q 668 299 697 260 q 585 361 639 339 q 435 383 531 383 l 231 383 l 231 57 z "},"C":{"ha":833,"x_min":86,"x_max":746,"o":"m 667 715 l 667 756 q 675 785 667 776 q 696 793 683 793 q 716 785 708 793 q 724 756 724 778 l 724 597 q 717 569 724 576 q 696 558 710 561 q 677 567 685 558 q 667 593 669 575 q 606 694 667 649 q 426 754 528 754 q 303 725 357 754 q 233 674 263 708 q 163 557 188 622 q 143 450 143 507 l 143 350 q 235 129 143 224 q 450 35 326 35 q 582 67 525 35 q 693 163 639 99 q 719 176 703 176 q 739 169 732 176 q 746 150 746 163 q 717 103 746 136 q 592 8 664 43 q 451 -22 519 -22 q 332 -1 388 -22 q 244 44 276 21 q 211 75 229 56 q 167 126 193 94 q 103 233 121 185 q 86 342 86 282 l 86 458 q 131 628 86 540 q 254 764 176 717 q 425 811 332 811 q 667 715 567 811 z "},"D":{"ha":833,"x_min":107,"x_max":775,"o":"m 193 57 l 193 736 l 144 736 q 115 744 126 736 q 107 765 108 753 q 115 785 107 778 q 144 793 124 793 l 451 793 q 582 765 524 793 q 674 696 640 736 q 720 630 699 665 q 754 560 742 594 q 775 436 775 507 l 775 357 q 736 190 775 274 q 607 44 697 107 q 451 0 539 0 l 144 0 q 115 8 126 0 q 107 29 110 17 q 115 49 107 40 q 144 57 124 57 l 193 57 m 250 57 l 457 57 q 592 103 531 57 q 686 217 654 150 q 718 346 718 283 l 718 449 q 700 543 718 503 q 632 657 678 601 q 559 711 607 686 q 457 736 511 736 l 250 736 l 250 57 z "},"E":{"ha":833,"x_min":60,"x_max":726,"o":"m 232 383 l 232 57 l 669 57 l 669 225 q 677 255 669 247 q 697 263 685 263 q 719 254 711 263 q 726 225 726 246 l 726 0 l 97 0 q 69 8 79 0 q 60 29 60 17 q 68 49 60 40 q 97 57 76 57 l 174 57 l 174 736 l 97 736 q 69 744 79 736 q 60 765 60 753 q 68 785 60 778 q 97 793 76 793 l 696 793 l 696 597 q 688 568 696 576 q 668 560 681 560 q 649 567 656 560 q 639 597 642 574 l 639 736 l 232 736 l 232 440 l 435 440 l 435 504 q 442 533 435 525 q 464 543 450 540 q 485 534 476 543 q 493 504 493 525 l 493 318 q 485 289 493 300 q 464 281 476 283 q 444 289 454 281 q 435 318 435 297 l 435 383 l 232 383 z "},"F":{"ha":833,"x_min":108,"x_max":774,"o":"m 279 383 l 279 57 l 475 57 q 503 49 493 57 q 513 29 513 42 q 504 8 513 17 q 475 0 496 0 l 146 0 q 117 8 125 0 q 108 29 108 17 q 117 49 108 40 q 146 57 125 57 l 222 57 l 222 736 l 146 736 q 117 744 125 736 q 108 765 108 753 q 117 785 108 778 q 146 793 125 793 l 774 793 l 774 597 q 765 569 774 579 q 744 560 757 560 q 724 568 732 560 q 715 597 715 576 l 715 736 l 279 736 l 279 440 l 483 440 l 483 504 q 491 533 483 525 q 513 543 499 540 q 533 534 525 543 q 542 504 542 525 l 542 318 q 533 289 542 300 q 513 281 525 283 q 492 289 500 281 q 483 318 483 297 l 483 383 l 279 383 z "},"G":{"ha":833,"x_min":88,"x_max":785,"o":"m 726 294 l 726 50 q 599 -3 664 15 q 467 -22 533 -22 q 306 5 375 -22 q 189 81 236 32 q 145 133 163 108 q 114 190 128 158 q 88 343 88 249 l 88 447 q 133 632 88 546 q 260 765 179 718 q 436 811 340 811 q 668 736 574 811 l 671 776 l 681 788 q 697 793 688 793 q 718 785 710 793 q 726 756 726 776 l 726 626 q 718 599 726 608 q 697 589 710 589 q 678 596 686 589 q 669 624 671 604 q 651 675 669 653 q 594 718 633 697 q 440 754 528 754 q 299 721 364 754 q 238 671 268 703 q 181 590 208 639 q 144 447 144 531 l 144 343 q 231 117 144 200 q 469 35 318 35 q 510 35 488 35 q 561 44 533 36 q 615 60 589 51 q 668 83 640 69 l 668 294 l 472 294 q 443 302 451 294 q 435 322 435 310 q 443 344 435 333 q 472 351 453 351 l 747 351 q 776 343 765 351 q 785 322 782 339 q 779 307 782 310 q 767 296 776 300 l 726 294 z "},"H":{"ha":833,"x_min":72,"x_max":769,"o":"m 610 383 l 232 383 l 232 57 l 308 57 q 337 50 329 57 q 347 29 344 43 q 338 8 347 17 q 308 0 329 0 l 111 0 q 83 8 90 0 q 72 29 75 15 q 81 49 72 40 q 111 57 90 57 l 175 57 l 175 736 l 140 736 q 111 744 121 736 q 101 765 101 753 q 110 785 101 778 q 140 793 118 793 l 308 793 q 337 786 329 793 q 347 765 344 779 q 340 746 347 753 q 308 736 332 739 l 232 736 l 232 440 l 610 440 l 610 736 l 533 736 q 506 744 515 736 q 496 765 496 753 q 504 785 496 778 q 533 793 513 793 l 703 793 q 730 786 721 793 q 742 765 739 779 q 734 746 742 753 q 703 736 726 739 l 667 736 l 667 57 l 732 57 q 760 49 750 57 q 769 29 769 42 q 761 8 769 17 q 732 0 753 0 l 533 0 q 506 8 515 0 q 496 29 496 17 q 504 49 496 40 q 533 57 513 57 l 610 57 l 610 383 z "},"I":{"ha":833,"x_min":156,"x_max":679,"o":"m 446 736 l 446 57 l 640 57 q 669 50 661 57 q 679 29 676 43 q 669 8 679 17 q 640 0 663 0 l 193 0 q 165 8 175 0 q 156 29 156 17 q 164 49 156 40 q 193 57 172 57 l 389 57 l 389 736 l 193 736 q 165 744 175 736 q 156 765 156 753 q 164 785 156 778 q 193 793 172 793 l 640 793 q 669 786 661 793 q 679 765 676 779 q 669 744 679 753 q 640 736 665 739 l 446 736 z "},"J":{"ha":833,"x_min":115,"x_max":813,"o":"m 639 736 l 639 233 q 563 53 639 129 q 378 -22 486 -22 q 252 7 314 -22 q 115 104 190 36 l 115 314 q 124 343 115 335 q 144 351 132 351 q 165 343 157 351 q 174 314 174 335 l 174 131 q 274 60 221 85 q 378 35 328 35 q 483 61 432 35 q 551 131 519 83 q 582 233 582 179 l 582 736 l 358 736 q 331 744 340 736 q 319 765 321 753 q 329 785 319 779 q 358 793 338 793 l 775 793 q 804 785 796 793 q 813 765 813 778 q 806 746 813 753 q 775 736 799 739 l 639 736 z "},"K":{"ha":833,"x_min":60,"x_max":799,"o":"m 232 311 l 232 57 l 338 57 q 365 50 356 57 q 376 29 374 43 q 367 8 376 17 q 338 0 358 0 l 99 0 q 70 8 78 0 q 60 29 63 15 q 69 49 60 40 q 99 57 78 57 l 175 57 l 175 736 l 99 736 q 69 744 78 736 q 60 765 61 753 q 69 785 60 779 q 99 793 78 793 l 338 793 q 365 786 356 793 q 376 765 374 779 q 369 746 376 753 q 338 736 361 739 l 232 736 l 232 386 l 625 736 l 563 736 q 535 744 544 736 q 524 765 525 753 q 533 785 524 779 q 563 793 542 793 l 731 793 q 758 785 749 793 q 768 765 768 778 q 761 746 768 753 q 731 736 754 739 l 707 736 l 394 457 q 510 385 465 426 q 599 264 554 344 q 689 57 621 225 l 760 57 q 787 50 778 57 q 799 29 796 43 q 790 8 799 17 q 760 0 781 0 l 650 0 q 499 314 561 243 q 347 414 438 385 l 232 311 z "},"L":{"ha":833,"x_min":88,"x_max":754,"o":"m 318 736 l 318 57 l 696 57 l 696 283 q 704 313 696 304 q 725 321 713 321 q 746 313 738 321 q 754 283 754 304 l 754 0 l 125 0 q 96 8 104 0 q 88 29 88 17 q 96 49 88 42 q 125 57 104 57 l 261 57 l 261 736 l 125 736 q 96 744 104 736 q 88 765 88 753 q 96 785 88 779 q 125 793 104 793 l 454 793 q 482 785 472 793 q 492 765 492 778 q 485 746 492 753 q 454 736 478 739 l 318 736 z "},"M":{"ha":833,"x_min":17,"x_max":825,"o":"m 454 238 l 389 238 l 171 736 l 160 736 l 160 57 l 264 57 q 292 50 285 57 q 303 29 300 43 q 293 8 303 17 q 264 0 286 0 l 54 0 q 25 8 33 0 q 17 29 17 17 q 25 49 17 40 q 54 57 33 57 l 103 57 l 103 736 l 67 736 q 38 744 46 736 q 29 765 29 753 q 38 785 29 779 q 67 793 46 793 l 206 793 l 422 303 l 635 793 l 774 793 q 804 785 793 793 q 813 765 810 781 q 806 746 813 753 q 774 736 799 739 l 739 736 l 739 57 l 786 57 q 815 50 807 57 q 825 29 822 43 q 816 8 825 17 q 786 0 807 0 l 576 0 q 548 8 556 0 q 538 29 540 15 q 547 49 538 40 q 576 57 554 57 l 682 57 l 682 736 l 669 736 l 454 238 z "},"N":{"ha":833,"x_min":31,"x_max":782,"o":"m 696 0 l 622 0 l 203 710 l 203 57 l 308 57 q 335 50 326 57 q 347 29 344 43 q 338 8 347 17 q 308 0 329 0 l 99 0 q 69 8 79 0 q 60 29 60 17 q 68 49 60 40 q 99 57 76 57 l 146 57 l 146 736 l 69 736 q 40 744 49 736 q 31 765 32 753 q 40 785 31 779 q 69 793 49 793 l 218 793 l 639 82 l 639 736 l 533 736 q 506 744 515 736 q 496 765 496 753 q 504 785 496 778 q 533 793 513 793 l 744 793 q 772 785 763 793 q 782 765 782 778 q 775 746 782 753 q 744 736 768 739 l 696 736 l 696 0 z "},"O":{"ha":833,"x_min":0,"x_max":694,"o":"m 694 394 q 649 183 694 282 q 521 31 603 85 q 347 -22 439 -22 q 106 94 211 -22 q 0 394 0 211 q 104 694 0 578 q 347 811 208 811 q 437 799 394 811 q 520 758 479 786 q 592 694 561 731 q 647 607 624 657 q 694 394 694 511 m 636 394 q 556 644 636 533 q 347 754 476 754 q 142 649 226 754 q 57 394 57 543 q 147 135 57 236 q 347 35 236 35 q 556 144 475 35 q 636 394 636 254 z "},"P":{"ha":833,"x_min":121,"x_max":756,"o":"m 293 325 l 293 57 l 489 57 q 515 50 507 57 q 526 29 524 43 q 518 8 526 17 q 489 0 510 0 l 160 0 q 131 8 139 0 q 121 29 124 15 q 130 49 121 40 q 160 57 139 57 l 236 57 l 236 736 l 160 736 q 131 744 139 736 q 121 765 122 753 q 131 785 121 779 q 160 793 139 793 l 490 793 q 682 724 608 793 q 756 563 756 654 q 732 462 756 506 q 674 394 708 418 q 573 340 621 354 q 471 325 525 325 l 293 325 m 293 382 l 475 382 q 593 410 535 382 q 674 479 646 438 q 699 563 699 521 q 642 683 699 631 q 496 736 585 736 l 293 736 l 293 382 z "},"Q":{"ha":833,"x_min":71,"x_max":765,"o":"m 425 -22 l 349 -79 q 399 -71 376 -74 q 442 -68 421 -68 q 558 -89 500 -68 q 590 -100 575 -96 q 622 -106 606 -104 q 710 -74 658 -106 q 736 -61 729 -61 q 757 -69 750 -61 q 764 -89 764 -76 q 757 -107 764 -100 q 693 -144 744 -122 q 618 -162 653 -162 q 589 -159 603 -162 q 540 -144 575 -156 q 443 -125 489 -125 q 371 -132 411 -125 q 303 -144 331 -139 q 251 -157 275 -150 l 232 -160 q 213 -151 222 -160 q 203 -131 203 -143 q 219 -106 203 -118 l 346 -14 q 151 125 232 14 q 71 394 71 236 q 175 694 71 578 q 418 811 279 811 q 661 694 557 811 q 765 394 765 578 q 663 96 765 215 q 551 8 610 38 q 425 -22 493 -22 m 707 394 q 627 644 707 533 q 418 754 547 754 q 213 650 297 754 q 128 394 128 546 q 217 135 128 236 q 418 35 307 35 q 626 144 546 35 q 707 394 707 254 z "},"R":{"ha":833,"x_min":60,"x_max":824,"o":"m 232 354 l 232 57 l 336 57 q 365 49 356 57 q 375 29 375 42 q 367 8 375 17 q 336 0 358 0 l 97 0 q 69 8 79 0 q 60 29 60 17 q 68 49 60 40 q 97 57 76 57 l 174 57 l 174 736 l 97 736 q 69 744 79 736 q 60 765 60 753 q 68 785 60 778 q 97 793 76 793 l 442 793 q 622 726 549 793 q 694 574 694 658 q 649 458 694 513 q 499 369 603 404 q 602 276 560 328 q 742 57 644 224 l 785 57 q 813 50 806 57 q 824 29 821 43 q 814 8 824 17 q 785 0 807 0 l 710 0 q 547 251 606 186 q 413 354 488 317 l 232 354 m 232 411 l 386 411 q 523 438 463 411 q 610 502 583 464 q 638 576 638 540 q 581 684 638 632 q 440 736 524 736 l 232 736 l 232 411 z "},"S":{"ha":833,"x_min":125,"x_max":708,"o":"m 621 736 l 621 756 q 628 785 621 778 q 649 793 636 793 q 669 785 661 793 q 678 756 678 776 l 678 610 q 671 583 678 592 q 649 572 664 575 q 629 581 638 572 q 621 607 621 589 q 563 708 621 661 q 417 754 506 754 q 267 706 324 754 q 211 592 211 657 q 226 532 211 560 q 268 485 242 504 q 325 458 293 469 q 429 435 357 447 q 525 417 486 426 q 589 397 564 408 q 678 324 646 371 q 700 272 692 301 q 708 213 708 243 q 631 47 708 115 q 419 -22 554 -22 q 182 71 271 -22 l 182 38 q 174 10 182 19 q 154 0 167 0 q 133 8 142 0 q 125 38 125 17 l 125 196 q 133 224 125 214 q 154 233 142 233 q 174 226 167 233 q 182 200 182 218 q 249 86 182 138 q 419 35 310 35 q 588 88 525 35 q 651 215 651 142 q 627 294 651 258 q 557 350 603 331 q 404 383 528 363 q 217 454 281 404 q 154 593 154 504 q 225 747 154 683 q 415 811 296 811 q 621 736 533 811 z "},"T":{"ha":833,"x_min":97,"x_max":735,"o":"m 444 736 l 444 57 l 593 57 q 621 49 611 57 q 631 29 631 42 q 622 8 631 17 q 593 0 614 0 l 239 0 q 213 7 221 0 q 201 29 204 14 q 210 49 201 40 q 239 57 218 57 l 388 57 l 388 736 l 154 736 l 154 539 q 147 512 154 521 q 125 500 140 503 q 106 509 114 500 q 97 539 97 518 l 97 793 l 735 793 l 735 539 q 728 512 735 521 q 707 500 721 503 q 688 508 694 500 q 678 539 681 517 l 678 736 l 444 736 z "},"U":{"ha":833,"x_min":57,"x_max":779,"o":"m 693 736 l 693 261 q 613 60 693 143 q 419 -22 533 -22 q 285 11 343 -22 q 184 110 225 42 q 143 261 143 179 l 143 736 l 94 736 q 65 744 74 736 q 57 765 57 753 q 66 786 57 779 q 94 793 75 793 l 304 793 q 333 786 325 793 q 343 765 340 779 q 335 746 343 753 q 304 736 328 739 l 200 736 l 200 261 q 265 100 200 165 q 417 35 329 35 q 519 60 471 35 q 600 140 568 89 q 636 261 636 193 l 636 736 l 531 736 q 501 744 510 736 q 492 765 493 753 q 501 785 492 779 q 531 793 510 793 l 740 793 q 769 786 761 793 q 779 765 776 779 q 772 746 779 753 q 740 736 764 739 l 693 736 z "},"V":{"ha":833,"x_min":11,"x_max":824,"o":"m 460 0 l 379 0 l 93 736 l 49 736 l 26 739 l 15 750 q 11 765 11 757 l 15 781 l 26 790 l 49 793 l 261 793 q 283 790 279 793 l 294 781 l 299 765 l 294 750 q 283 739 289 742 l 261 736 l 151 736 l 417 57 l 682 736 l 574 736 l 550 739 l 539 750 q 535 765 535 757 l 539 781 l 550 790 l 574 793 l 785 793 q 808 790 803 793 l 818 781 l 824 765 q 818 749 824 756 q 807 739 813 742 l 785 736 l 742 736 l 460 0 z "},"W":{"ha":833,"x_min":25,"x_max":806,"o":"m 667 0 l 578 0 l 415 564 l 258 0 l 168 0 l 85 736 l 63 736 q 33 744 44 736 q 25 765 26 753 q 33 785 25 778 q 63 793 42 793 l 275 793 q 302 786 293 793 q 314 765 311 779 q 306 746 314 753 q 275 736 299 739 l 142 736 l 217 65 l 371 618 l 458 618 l 617 65 l 690 736 l 557 736 q 528 744 536 736 q 519 765 519 753 q 528 785 519 779 q 557 793 536 793 l 767 793 q 796 785 786 793 q 806 765 806 778 q 799 746 806 753 q 767 736 792 739 l 746 736 l 667 0 z "},"X":{"ha":833,"x_min":54,"x_max":782,"o":"m 451 406 l 722 57 l 743 57 q 772 50 764 57 q 782 29 779 43 q 773 8 782 17 q 743 0 764 0 l 560 0 q 532 8 542 0 q 522 29 522 17 q 531 49 522 40 q 560 57 539 57 l 651 57 l 415 360 l 183 57 l 274 57 q 302 50 294 57 q 313 29 310 43 q 303 8 313 17 q 274 0 294 0 l 92 0 q 63 8 74 0 q 54 29 54 19 q 60 46 54 39 l 72 56 l 114 57 l 381 406 l 125 736 l 104 736 q 76 744 86 736 q 67 765 67 753 q 75 785 67 778 q 104 793 83 793 l 260 793 q 288 786 281 793 q 299 765 296 779 q 289 744 299 753 q 260 736 285 739 l 196 736 l 415 453 l 635 736 l 571 736 q 542 744 551 736 q 532 765 532 753 q 540 785 532 778 q 571 793 549 793 l 726 793 q 756 785 747 793 q 764 765 764 778 q 757 746 764 753 q 726 736 750 739 l 704 736 l 451 406 z "},"Y":{"ha":833,"x_min":67,"x_max":765,"o":"m 447 358 l 447 57 l 594 57 q 623 50 615 57 q 633 29 631 43 q 624 8 633 17 q 594 0 615 0 l 242 0 q 213 8 221 0 q 203 29 206 15 q 211 49 203 40 q 242 57 219 57 l 389 57 l 389 358 l 139 736 l 106 736 q 76 744 85 736 q 67 765 68 753 q 76 785 67 779 q 106 793 85 793 l 261 793 q 290 786 282 793 q 300 765 297 779 q 290 744 300 753 q 261 736 286 739 l 206 736 l 418 415 l 626 736 l 571 736 q 543 744 553 736 q 532 765 533 753 q 542 785 532 779 q 571 793 550 793 l 726 793 q 755 786 747 793 q 765 765 763 779 q 756 744 765 753 q 726 736 751 739 l 693 736 l 447 358 z "},"Z":{"ha":833,"x_min":144,"x_max":693,"o":"m 693 0 l 144 0 l 144 83 l 607 732 l 228 736 l 228 569 q 219 540 228 550 q 199 531 211 531 q 178 540 186 531 q 171 569 171 549 l 171 793 l 663 793 l 663 713 l 200 63 l 200 57 l 636 57 l 636 256 q 643 286 636 278 q 665 294 651 293 q 685 286 676 294 q 693 256 693 278 l 693 0 z "},"[":{"ha":833,"x_min":0,"x_max":233,"o":"m 57 793 l 57 -118 l 196 -118 q 222 -125 214 -118 q 233 -147 231 -132 q 226 -167 233 -160 q 196 -175 218 -175 l 0 -175 l 0 851 l 196 851 q 222 844 214 851 q 233 822 231 838 q 225 801 233 810 q 196 793 217 793 l 57 793 z "},"\\":{"ha":833,"x_min":0,"x_max":524,"o":"m 58 913 l 517 -69 l 524 -90 q 515 -110 524 -101 q 494 -118 507 -118 q 464 -93 475 -118 l 7 889 l 0 911 q 8 929 0 921 q 29 938 17 938 q 58 913 47 938 z "},"]":{"ha":833,"x_min":0,"x_max":233,"o":"m 175 -118 l 175 793 l 38 793 q 10 801 19 793 q 0 822 0 810 q 8 843 0 835 q 38 851 17 851 l 233 851 l 233 -175 l 38 -175 q 8 -167 17 -175 q 0 -147 0 -160 q 8 -126 0 -135 q 38 -118 17 -118 l 175 -118 z "},"^":{"ha":833,"x_min":154,"x_max":679,"o":"m 417 868 l 667 553 q 679 528 679 538 q 669 508 679 517 q 650 500 663 500 q 621 518 638 500 l 417 778 l 211 518 q 183 499 199 499 q 164 507 174 499 q 154 528 154 515 q 167 553 154 538 l 417 868 z "},"_":{"ha":833,"x_min":-18,"x_max":851,"o":"m 814 -381 l 19 -381 q -8 -373 1 -381 q -18 -351 -18 -365 q -10 -331 -18 -342 q 19 -324 0 -324 l 814 -324 q 844 -331 836 -324 q 851 -351 851 -339 q 843 -372 851 -364 q 814 -381 835 -381 z "},"`":{"ha":833,"x_min":301,"x_max":533,"o":"m 356 888 l 517 750 l 531 732 l 533 722 q 526 701 533 710 q 504 693 518 693 q 478 706 492 693 l 318 844 q 301 872 301 860 q 310 892 301 885 q 331 901 318 900 q 356 888 342 901 z "},"a":{"ha":833,"x_min":97,"x_max":753,"o":"m 581 0 l 581 82 q 315 -22 456 -22 q 155 30 213 -22 q 97 157 97 82 q 174 301 97 239 q 396 363 250 363 q 428 363 415 363 q 481 357 442 363 q 528 351 501 356 q 581 342 554 347 l 581 435 q 538 515 581 481 q 407 550 494 550 q 221 511 339 550 l 193 504 q 174 513 182 504 q 167 533 167 522 q 174 551 167 546 q 250 579 181 560 q 410 608 354 608 q 577 556 517 608 q 638 435 638 503 l 638 57 l 714 57 q 743 49 733 57 q 753 29 753 42 q 744 8 753 17 q 714 0 736 0 l 581 0 m 581 283 q 498 300 540 294 q 401 306 456 306 q 207 253 276 306 q 154 157 154 213 q 194 69 154 107 q 313 35 238 35 q 447 63 385 35 q 581 158 510 92 l 581 283 z "},"b":{"ha":833,"x_min":31,"x_max":753,"o":"m 203 851 l 203 474 q 451 608 306 608 q 664 517 575 608 q 753 294 753 426 q 663 70 753 163 q 451 -22 574 -22 q 203 113 303 -22 l 203 0 l 68 0 q 40 8 50 0 q 31 29 31 17 q 39 49 31 40 q 68 57 47 57 l 144 57 l 144 793 l 68 793 q 40 801 50 793 q 31 822 31 810 q 39 843 31 835 q 68 851 47 851 l 203 851 m 696 292 q 622 476 696 401 q 450 550 549 550 q 277 474 351 550 q 203 292 203 399 q 276 110 203 186 q 450 35 350 35 q 624 110 551 35 q 696 292 696 186 z "},"c":{"ha":833,"x_min":115,"x_max":746,"o":"m 654 529 l 654 549 q 663 579 654 568 q 683 588 671 586 q 703 579 693 588 q 713 549 713 571 l 713 419 q 705 392 713 400 q 683 381 697 383 q 665 389 672 381 q 653 431 657 397 q 590 507 650 464 q 432 550 531 550 q 240 470 306 550 q 174 289 174 390 q 245 107 174 179 q 433 35 317 35 q 567 59 497 35 q 693 138 638 83 q 718 151 707 149 q 738 144 729 151 q 746 124 746 136 q 676 50 746 94 q 431 -22 569 -22 q 205 66 294 -22 q 115 289 115 154 q 206 516 115 424 q 435 608 297 608 q 654 529 564 608 z "},"d":{"ha":833,"x_min":86,"x_max":810,"o":"m 696 851 l 696 57 l 772 57 q 800 49 790 57 q 810 29 810 42 q 801 8 810 15 q 772 0 793 0 l 638 0 l 638 114 q 386 -22 539 -22 q 238 18 311 -22 q 126 135 167 61 q 86 292 86 208 q 126 449 86 376 q 238 567 165 522 q 312 598 275 588 q 388 608 349 608 q 638 472 535 608 l 638 793 l 563 793 q 533 801 543 793 q 524 822 524 810 q 532 843 524 835 q 563 851 540 851 l 696 851 m 638 292 q 565 476 638 401 q 390 550 492 550 q 216 476 289 550 q 143 292 143 403 q 216 109 143 183 q 390 35 289 35 q 565 109 492 35 q 638 292 638 183 z "},"e":{"ha":833,"x_min":88,"x_max":726,"o":"m 725 281 l 144 281 q 238 103 160 171 q 429 35 315 35 q 563 56 492 35 q 625 80 597 67 q 676 111 653 93 q 699 121 688 121 q 718 113 710 121 q 726 93 726 104 q 715 71 726 81 q 601 8 685 39 q 429 -22 517 -22 q 185 74 283 -22 q 88 306 88 169 q 179 519 88 431 q 406 608 271 608 q 635 517 546 608 q 725 281 725 426 m 667 338 q 580 490 653 431 q 406 550 507 550 q 235 491 308 550 q 144 338 163 432 l 667 338 z "},"f":{"ha":833,"x_min":146,"x_max":756,"o":"m 379 529 l 379 57 l 629 57 q 658 49 650 57 q 667 29 667 42 q 658 8 667 15 q 629 0 650 0 l 183 0 q 156 8 165 0 q 146 29 146 17 q 154 49 146 40 q 183 57 163 57 l 321 57 l 321 529 l 199 529 q 170 537 178 529 q 160 558 163 544 q 169 579 160 571 q 199 588 176 588 l 321 588 l 321 674 q 380 798 321 744 q 535 851 439 851 q 615 847 569 851 q 701 838 661 843 q 749 824 740 832 q 756 804 753 817 q 747 784 756 792 q 725 776 738 776 l 707 778 q 616 789 661 785 q 535 793 571 793 q 419 756 460 793 q 379 674 379 719 l 379 588 l 646 588 q 674 579 664 588 q 683 558 683 571 q 675 538 683 546 q 646 529 667 529 l 379 529 z "},"g":{"ha":833,"x_min":85,"x_max":781,"o":"m 608 483 l 608 588 l 742 588 q 770 580 763 588 q 781 558 778 572 q 772 538 781 546 q 742 529 763 529 l 665 529 l 665 -39 q 640 -142 665 -96 q 587 -201 626 -168 q 518 -249 547 -235 q 435 -261 486 -261 l 272 -261 q 243 -253 251 -261 q 235 -233 235 -246 q 243 -212 235 -221 q 272 -204 251 -204 l 436 -204 q 478 -200 456 -204 q 526 -179 500 -196 q 593 -104 569 -153 q 608 -31 608 -74 l 608 140 q 372 14 515 14 q 171 102 257 14 q 85 311 85 190 q 170 522 85 435 q 372 608 256 608 q 608 483 517 608 m 608 311 q 539 481 608 411 q 375 550 469 550 q 212 481 281 550 q 143 311 143 413 q 211 142 143 211 q 375 72 279 72 q 540 142 471 72 q 608 311 608 211 z "},"h":{"ha":833,"x_min":58,"x_max":768,"o":"m 229 851 l 229 500 q 332 583 281 557 q 444 608 383 608 q 557 583 511 608 q 636 513 601 564 q 667 410 667 463 l 667 57 l 731 57 q 758 49 749 57 q 768 29 768 42 q 760 8 768 17 q 731 0 751 0 l 546 0 q 517 8 526 0 q 507 29 507 17 q 515 49 507 40 q 546 57 524 57 l 608 57 l 608 406 q 564 510 608 467 q 440 550 519 550 q 335 521 379 550 q 229 418 301 497 l 229 57 l 293 57 q 322 50 314 57 q 332 29 329 43 q 322 8 332 17 q 293 0 315 0 l 108 0 q 80 8 88 0 q 69 29 72 15 q 78 49 69 40 q 108 57 88 57 l 172 57 l 172 793 l 96 793 q 67 801 75 793 q 58 822 58 810 q 67 844 58 836 q 96 851 75 851 l 229 851 z "},"i":{"ha":833,"x_min":128,"x_max":710,"o":"m 444 879 l 444 732 l 361 732 l 361 879 l 444 879 m 447 588 l 447 57 l 671 57 q 699 50 692 57 q 710 29 707 43 q 701 8 710 17 q 671 0 692 0 l 167 0 q 138 8 146 0 q 128 29 131 15 q 137 49 128 40 q 167 57 146 57 l 390 57 l 390 529 l 224 529 q 197 537 206 529 q 185 558 188 544 q 194 579 185 571 q 224 588 203 588 l 447 588 z "},"j":{"ha":833,"x_min":122,"x_max":558,"o":"m 499 879 l 499 732 l 414 732 l 414 879 l 499 879 m 501 529 l 164 529 q 135 537 143 529 q 125 558 128 544 q 133 579 125 571 q 164 588 142 588 l 558 588 l 558 -40 q 529 -162 558 -114 q 439 -240 500 -211 q 342 -261 399 -261 l 160 -261 q 131 -253 139 -261 q 122 -233 122 -246 q 131 -212 122 -221 q 160 -204 139 -204 l 340 -204 q 456 -158 411 -204 q 501 -40 501 -112 l 501 529 z "},"k":{"ha":833,"x_min":129,"x_max":794,"o":"m 301 254 l 301 0 l 168 0 q 140 8 147 0 q 129 29 132 15 q 138 49 129 40 q 168 57 147 57 l 244 57 l 244 793 l 168 793 q 140 801 147 793 q 129 822 132 808 q 138 843 129 835 q 168 851 147 851 l 301 851 l 301 326 l 543 529 l 514 529 q 486 538 496 529 q 476 558 476 546 q 485 579 476 571 q 514 588 493 588 l 696 588 q 725 579 715 588 q 735 558 735 571 q 726 538 735 546 q 696 529 718 529 l 631 529 l 408 344 l 690 57 l 756 57 q 784 50 776 57 q 794 29 792 43 q 785 8 794 17 q 756 0 778 0 l 571 0 q 543 8 553 0 q 533 29 533 17 q 542 49 533 40 q 571 57 550 57 l 611 57 l 367 308 l 301 254 z "},"l":{"ha":833,"x_min":126,"x_max":708,"o":"m 446 851 l 446 57 l 669 57 q 698 50 690 57 q 708 29 706 43 q 699 8 708 17 q 669 0 692 0 l 165 0 q 137 8 144 0 q 126 29 129 15 q 135 49 126 40 q 165 57 144 57 l 389 57 l 389 793 l 225 793 q 196 801 206 793 q 186 822 186 810 q 194 843 186 835 q 225 851 203 851 l 446 851 z "},"m":{"ha":833,"x_min":14,"x_max":824,"o":"m 157 588 l 157 529 q 303 608 232 608 q 381 583 347 608 q 436 514 413 564 q 473 553 454 535 q 513 583 492 571 q 592 608 553 608 q 690 568 653 608 q 738 456 738 517 l 738 57 l 786 57 q 815 49 807 57 q 824 29 824 42 q 815 8 824 17 q 786 0 807 0 l 681 0 l 681 450 q 653 522 681 493 q 593 550 626 550 q 528 528 561 550 q 449 435 496 506 l 449 57 l 496 57 q 524 50 517 57 q 535 29 532 43 q 525 8 535 17 q 496 0 518 0 l 392 0 l 392 446 q 365 519 392 489 q 304 550 339 550 q 244 531 272 550 q 157 435 207 506 l 157 57 l 206 57 q 235 49 226 57 q 243 29 243 42 q 235 8 243 17 q 206 0 226 0 l 53 0 q 24 8 32 0 q 14 29 17 15 q 23 49 14 40 q 53 57 32 57 l 100 57 l 100 529 l 53 529 q 24 537 32 529 q 14 558 17 544 q 23 579 14 571 q 53 588 32 588 l 157 588 z "},"n":{"ha":833,"x_min":74,"x_max":753,"o":"m 232 588 l 232 501 q 342 585 293 563 q 449 608 390 608 q 568 579 514 608 q 635 513 604 561 q 667 415 667 465 l 667 57 l 715 57 q 744 49 736 57 q 753 29 753 42 q 744 8 753 15 q 715 0 736 0 l 563 0 q 535 8 544 0 q 524 29 526 15 q 533 49 524 40 q 563 57 542 57 l 610 57 l 610 406 q 566 508 610 467 q 449 550 522 550 q 350 526 389 550 q 232 414 311 506 l 232 57 l 297 57 q 325 49 315 57 q 335 29 335 42 q 326 8 335 17 q 297 0 318 0 l 111 0 q 82 8 90 0 q 74 29 74 17 q 82 49 74 40 q 111 57 90 57 l 175 57 l 175 529 l 128 529 q 99 537 107 529 q 89 558 92 544 q 98 579 89 571 q 128 588 107 588 l 232 588 z "},"o":{"ha":833,"x_min":99,"x_max":735,"o":"m 735 292 q 641 70 735 163 q 417 -22 547 -22 q 192 70 286 -22 q 99 292 99 163 q 192 515 99 422 q 417 608 285 608 q 642 516 549 608 q 735 292 735 424 m 678 292 q 601 474 678 399 q 417 550 524 550 q 232 474 308 550 q 156 292 156 399 q 231 110 156 186 q 417 35 307 35 q 601 110 524 35 q 678 292 678 186 z "},"p":{"ha":833,"x_min":31,"x_max":753,"o":"m 203 588 l 203 483 q 311 576 251 543 q 449 608 371 608 q 603 569 531 608 q 715 460 676 531 q 753 311 753 390 q 665 101 753 189 q 450 14 578 14 q 203 139 297 14 l 203 -204 l 340 -204 q 369 -212 361 -204 q 378 -233 378 -221 q 370 -254 378 -247 q 340 -261 363 -261 l 68 -261 q 39 -253 47 -261 q 31 -233 31 -246 q 38 -214 31 -221 q 68 -204 44 -207 l 144 -204 l 144 529 l 68 529 q 40 538 50 529 q 31 558 31 546 q 39 579 31 571 q 68 588 47 588 l 203 588 m 696 311 q 624 479 696 408 q 450 550 553 550 q 275 480 347 550 q 203 311 203 410 q 274 143 203 214 q 450 72 344 72 q 624 143 553 72 q 696 311 696 214 z "},"q":{"ha":833,"x_min":88,"x_max":810,"o":"m 638 483 l 638 588 l 771 588 q 800 579 790 588 q 810 558 810 571 q 801 538 810 546 q 771 529 793 529 l 694 529 l 694 -204 l 771 -204 q 800 -212 790 -204 q 810 -233 810 -221 q 802 -253 810 -246 q 771 -261 794 -261 l 500 -261 q 470 -253 478 -261 q 463 -233 463 -246 q 469 -213 463 -219 q 500 -204 476 -207 l 638 -204 l 638 139 q 390 14 543 14 q 176 101 264 14 q 88 311 88 188 q 174 522 88 435 q 392 608 261 608 q 638 483 543 608 m 638 311 q 566 479 638 408 q 390 550 494 550 q 217 480 289 550 q 144 311 144 410 q 215 143 144 214 q 390 72 286 72 q 567 142 496 72 q 638 311 638 213 z "},"r":{"ha":833,"x_min":115,"x_max":756,"o":"m 349 588 l 349 443 q 515 572 460 543 q 617 601 569 601 q 712 567 668 601 q 756 515 756 533 q 747 493 756 504 q 725 486 738 486 l 714 488 l 696 503 q 676 520 689 511 q 656 536 664 529 q 621 544 636 544 q 531 515 585 544 q 349 369 469 479 l 349 57 l 601 57 q 629 49 619 57 q 639 29 639 42 q 631 8 639 17 q 601 0 622 0 l 154 0 q 125 7 132 0 q 115 28 118 14 q 124 47 115 39 q 154 56 132 56 l 292 56 l 292 529 l 186 529 q 158 538 168 529 q 149 558 149 546 q 157 579 149 571 q 186 588 165 588 l 349 588 z "},"s":{"ha":833,"x_min":140,"x_max":693,"o":"m 606 550 q 613 579 606 568 q 633 588 621 586 q 654 579 646 588 q 663 549 663 571 l 663 451 q 655 423 663 431 q 633 413 647 415 q 615 419 622 413 q 605 456 608 425 q 563 513 601 486 q 415 550 508 550 q 267 511 319 550 q 228 446 228 482 q 275 378 228 407 q 411 349 306 361 q 563 319 517 338 q 661 254 629 297 q 693 164 693 211 q 623 35 693 92 q 418 -22 553 -22 q 197 46 283 -22 q 194 16 197 22 q 185 4 192 10 l 169 0 q 149 8 157 0 q 140 38 140 17 l 140 156 q 147 185 140 174 q 169 193 156 193 q 189 185 181 193 q 199 163 197 178 q 214 110 199 131 q 289 56 235 79 q 417 35 342 35 q 582 76 528 35 q 636 164 636 117 q 581 248 636 215 q 421 290 526 281 q 268 318 315 300 q 195 372 221 336 q 169 449 169 407 q 242 565 169 522 q 413 608 314 608 q 606 550 531 608 z "},"t":{"ha":833,"x_min":99,"x_max":735,"o":"m 300 588 l 608 588 q 637 580 629 588 q 647 558 644 572 q 638 538 647 546 q 608 529 631 529 l 300 529 l 300 150 q 340 68 300 101 q 456 35 379 35 q 577 51 511 35 q 685 90 643 67 l 707 100 q 726 90 718 100 q 735 71 735 83 q 725 53 735 61 q 620 3 704 29 q 460 -22 536 -22 q 300 24 358 -22 q 242 150 242 71 l 242 529 l 138 529 q 109 537 117 529 q 99 558 101 544 q 108 579 99 571 q 138 588 117 588 l 242 588 l 242 756 q 250 785 242 776 q 271 793 258 793 q 292 785 283 793 q 300 756 300 776 l 300 588 z "},"u":{"ha":833,"x_min":61,"x_max":754,"o":"m 611 0 l 611 83 q 360 -22 497 -22 q 232 24 276 -22 q 176 163 176 83 l 176 529 l 100 529 q 72 537 79 529 q 61 558 64 544 q 70 579 61 571 q 100 588 79 588 l 233 588 l 233 163 q 269 70 233 106 q 357 35 304 35 q 611 163 496 35 l 611 529 l 507 529 q 478 537 486 529 q 468 558 471 544 q 477 579 468 571 q 507 588 486 588 l 668 588 l 668 57 l 717 57 q 746 49 738 57 q 754 29 754 42 q 746 8 754 15 q 717 0 738 0 l 611 0 z "},"v":{"ha":833,"x_min":40,"x_max":793,"o":"m 467 0 l 371 0 l 136 529 l 78 529 q 50 538 60 529 q 40 558 40 546 q 49 579 40 571 q 78 588 57 588 l 292 588 q 321 579 313 588 q 329 558 329 571 q 321 538 329 546 q 292 529 313 529 l 197 529 l 406 57 l 432 57 l 636 529 l 542 529 q 513 537 521 529 q 503 558 506 544 q 512 579 503 571 q 542 588 521 588 l 756 588 q 785 579 776 588 q 793 558 793 571 q 785 538 793 546 q 756 529 776 529 l 697 529 l 467 0 z "},"w":{"ha":833,"x_min":38,"x_max":794,"o":"m 613 0 l 543 0 l 417 365 l 292 0 l 222 0 l 104 529 l 76 529 q 48 537 56 529 q 38 558 40 544 q 47 579 38 571 q 76 588 56 588 l 232 588 q 260 580 253 588 q 271 558 268 572 q 261 538 271 546 q 232 529 254 529 l 160 529 l 261 78 l 382 439 l 450 439 l 575 78 l 672 529 l 600 529 q 573 537 582 529 q 561 558 564 544 q 570 579 561 571 q 600 588 579 588 l 756 588 q 785 579 775 588 q 794 558 794 571 q 786 538 794 546 q 756 529 778 529 l 729 529 l 613 0 z "},"x":{"ha":833,"x_min":68,"x_max":767,"o":"m 456 307 l 717 57 q 750 54 744 57 l 761 44 l 767 29 q 757 8 767 17 q 728 0 750 0 l 544 0 q 516 8 524 0 q 506 29 508 15 q 515 49 506 40 q 544 57 524 57 l 639 57 l 417 269 l 197 57 l 292 57 q 321 49 313 57 q 329 29 329 42 q 321 8 329 17 q 292 0 313 0 l 107 0 q 78 8 86 0 q 68 29 71 15 q 74 47 71 42 q 85 54 78 51 l 117 57 l 378 307 l 146 529 l 115 532 q 104 543 111 533 l 99 558 q 108 579 99 571 q 138 588 117 588 l 293 588 q 322 579 314 588 q 331 558 331 571 q 322 538 331 546 q 293 529 314 529 l 225 529 l 417 344 l 610 529 l 543 529 q 514 538 524 529 q 504 558 504 546 q 513 579 504 571 q 543 588 521 588 l 697 588 q 727 578 718 588 q 736 558 736 569 q 732 544 736 550 q 719 532 728 538 l 689 529 l 456 307 z "},"y":{"ha":833,"x_min":101,"x_max":797,"o":"m 421 0 l 156 529 l 139 529 q 110 538 118 529 q 101 558 101 546 l 106 574 q 117 583 110 582 q 126 586 119 586 q 139 588 132 586 l 294 588 q 323 580 315 588 q 333 558 331 572 q 324 538 333 546 q 294 529 315 529 l 218 529 l 451 63 l 681 529 l 604 529 q 576 537 583 529 q 565 558 568 544 q 575 579 565 571 q 604 588 582 588 l 758 588 q 788 579 778 588 q 797 558 797 571 q 792 542 797 549 l 781 532 l 742 529 l 381 -204 l 469 -204 q 498 -212 490 -204 q 508 -233 506 -219 q 500 -253 508 -246 q 469 -261 492 -261 l 142 -261 q 112 -253 119 -261 q 104 -233 104 -246 q 111 -214 104 -221 q 142 -204 118 -207 l 319 -204 l 421 0 z "},"z":{"ha":833,"x_min":161,"x_max":682,"o":"m 665 588 l 665 536 l 239 57 l 625 57 l 625 136 q 633 165 625 157 q 653 174 640 174 q 674 165 665 174 q 682 136 682 157 l 682 0 l 161 0 l 161 51 l 585 529 l 232 529 l 232 453 q 224 424 232 432 q 203 414 217 417 q 182 423 190 414 q 174 453 174 432 l 174 588 l 665 588 z "},"{":{"ha":833,"x_min":0,"x_max":286,"o":"m 110 338 q 138 313 126 325 q 156 288 149 300 q 167 256 163 275 q 171 217 171 238 l 171 -28 q 193 -90 171 -67 q 242 -117 215 -114 q 276 -126 268 -119 q 286 -147 283 -133 q 278 -167 286 -160 q 251 -175 269 -175 q 161 -142 196 -175 q 114 -28 114 -96 l 114 217 q 90 279 114 251 q 33 307 67 307 q 7 317 14 310 q 0 338 0 324 q 7 358 0 351 q 33 368 14 364 q 90 396 69 368 q 114 458 114 422 l 114 703 q 154 808 114 768 q 251 851 193 851 q 276 844 268 851 q 286 822 283 836 q 278 804 286 811 q 249 793 271 797 q 194 767 218 793 q 171 703 171 742 l 171 458 q 158 390 171 415 q 110 338 144 364 z "},"|":{"ha":833,"x_min":388,"x_max":446,"o":"m 446 813 l 444 -137 q 437 -167 444 -158 q 417 -175 429 -175 q 395 -167 403 -175 q 388 -137 388 -158 l 388 813 q 395 841 388 833 q 417 851 403 849 q 438 842 429 851 q 446 813 446 835 z "},"}":{"ha":833,"x_min":0,"x_max":286,"o":"m 176 338 q 148 363 161 349 q 131 386 135 378 q 115 458 115 413 l 115 703 q 94 764 115 739 q 44 792 72 789 q 8 802 17 794 q 0 822 0 810 q 8 843 0 835 q 33 851 17 851 q 124 817 86 851 q 172 703 172 771 l 172 458 q 194 396 172 419 q 242 369 214 372 q 278 358 271 367 q 286 338 286 350 q 278 318 286 325 q 251 307 271 311 q 221 300 235 307 q 194 279 207 293 q 172 217 172 256 l 172 -28 q 131 -133 172 -92 q 33 -176 92 -176 q 10 -168 19 -176 q 0 -147 0 -160 q 7 -128 0 -135 q 36 -118 14 -121 q 92 -89 69 -118 q 115 -28 115 -65 l 115 217 q 129 287 115 263 q 176 338 143 311 z "},"~":{"ha":833,"x_min":126,"x_max":707,"o":"m 681 453 q 699 444 690 453 q 707 426 707 436 q 649 347 707 404 q 540 293 588 293 q 478 310 510 293 q 442 335 464 318 q 389 382 421 353 q 333 429 350 419 q 294 442 315 439 q 255 430 276 442 q 192 369 233 418 l 167 343 l 154 340 q 135 347 142 340 q 126 367 129 353 q 144 400 126 378 q 225 476 189 456 q 293 499 257 499 q 349 485 321 499 q 418 433 376 471 q 501 361 485 371 q 536 350 518 351 q 638 419 583 350 q 665 449 660 446 q 681 453 669 453 z "}}}
